<svg width="97" height="99" viewBox="0 0 97 99" fill="none" xmlns="http://www.w3.org/2000/svg">
<g filter="url(#filter0_d_1_491)">
<path d="M53.6937 13.6205C53.6322 13.6205 53.58 13.6078 53.5369 13.5823C53.4938 13.5569 53.46 13.5123 53.4354 13.4487L52.9004 12.1504L51.5535 11.5394C51.492 11.5139 51.449 11.4789 51.4244 11.4344C51.3998 11.3898 51.3875 11.3357 51.3875 11.2721C51.3875 11.2084 51.3998 11.1543 51.4244 11.1098C51.449 11.0652 51.492 11.0302 51.5535 11.0048L52.9004 10.4129L53.4354 9.17184C53.46 9.10819 53.4938 9.06364 53.5369 9.03819C53.58 9.01273 53.6322 9 53.6937 9C53.7552 9 53.8075 9.01273 53.8506 9.03819C53.8936 9.06364 53.9274 9.10819 53.952 9.17184L54.4871 10.4129L55.8339 11.0048C55.8954 11.0302 55.9385 11.0652 55.9631 11.1098C55.9877 11.1543 56 11.2084 56 11.2721C56 11.3357 55.9877 11.3898 55.9631 11.4344C55.9385 11.4789 55.8954 11.5139 55.8339 11.5394L54.4871 12.1504L53.952 13.4487C53.9274 13.5123 53.8936 13.5569 53.8506 13.5823C53.8075 13.6078 53.7552 13.6205 53.6937 13.6205ZM53.6937 25C53.6445 25 53.5953 24.9873 53.5461 24.9618C53.4969 24.9364 53.46 24.8918 53.4354 24.8282L52.9004 23.5871L51.572 22.9952C51.5105 22.9698 51.4674 22.9348 51.4428 22.8902C51.4182 22.8457 51.4059 22.7916 51.4059 22.7279C51.4059 22.6643 51.4182 22.6102 51.4428 22.5656C51.4674 22.5211 51.5105 22.4861 51.572 22.4606L52.9004 21.8687L53.4354 20.5513C53.46 20.4877 53.4938 20.4431 53.5369 20.4177C53.58 20.3922 53.6322 20.3795 53.6937 20.3795C53.7552 20.3795 53.8075 20.3922 53.8506 20.4177C53.8936 20.4431 53.9274 20.4877 53.952 20.5513L54.4871 21.8687L55.8155 22.4606C55.877 22.4861 55.92 22.5211 55.9446 22.5656C55.9692 22.6102 55.9815 22.6643 55.9815 22.7279C55.9815 22.7916 55.9692 22.8457 55.9446 22.8902C55.92 22.9348 55.877 22.9698 55.8155 22.9952L54.4871 23.5871L53.952 24.8282C53.9274 24.8918 53.8905 24.9364 53.8413 24.9618C53.7921 24.9873 53.7429 25 53.6937 25ZM45.5941 21.6969C45.4957 21.6969 45.4004 21.6683 45.3081 21.611C45.2159 21.5537 45.1451 21.4741 45.0959 21.3723L43.8967 18.7184L41.3137 17.5155C41.2153 17.4646 41.1384 17.3914 41.083 17.2959C41.0277 17.2005 41 17.1018 41 17C41 16.8982 41.0277 16.7995 41.083 16.7041C41.1384 16.6086 41.2153 16.5354 41.3137 16.4845L43.8967 15.2816L45.0959 12.6468C45.1451 12.5322 45.2159 12.4463 45.3081 12.389C45.4004 12.3317 45.4957 12.3031 45.5941 12.3031C45.6925 12.3031 45.7878 12.3317 45.8801 12.389C45.9723 12.4463 46.0431 12.5259 46.0923 12.6277L47.31 15.2816L49.8745 16.4845C49.9852 16.5354 50.0683 16.6086 50.1236 16.7041C50.179 16.7995 50.2066 16.8982 50.2066 17C50.2066 17.1018 50.179 17.2005 50.1236 17.2959C50.0683 17.3914 49.9852 17.4646 49.8745 17.5155L47.31 18.7184L46.0923 21.3723C46.0431 21.4869 45.9723 21.5696 45.8801 21.6205C45.7878 21.6714 45.6925 21.6969 45.5941 21.6969Z" fill="#603CFF"/>
</g>
<defs>
<filter id="filter0_d_1_491" x="0.0499992" y="0.549999" width="96.9" height="97.9" filterUnits="userSpaceOnUse" color-interpolation-filters="sRGB">
<feFlood flood-opacity="0" result="BackgroundImageFix"/>
<feColorMatrix in="SourceAlpha" type="matrix" values="0 0 0 0 0 0 0 0 0 0 0 0 0 0 0 0 0 0 127 0" result="hardAlpha"/>
<feOffset dy="32.5"/>
<feGaussianBlur stdDeviation="20.475"/>
<feComposite in2="hardAlpha" operator="out"/>
<feColorMatrix type="matrix" values="0 0 0 0 0.262745 0 0 0 0 0.0941176 0 0 0 0 1 0 0 0 0.28 0"/>
<feBlend mode="normal" in2="BackgroundImageFix" result="effect1_dropShadow_1_491"/>
<feBlend mode="normal" in="SourceGraphic" in2="effect1_dropShadow_1_491" result="shape"/>
</filter>
</defs>
</svg>
