<svg width="48" height="48" viewBox="0 0 48 48" fill="none" xmlns="http://www.w3.org/2000/svg">
<rect width="48" height="48" rx="24" fill="#EEF2FF"/>
<path d="M27.0625 19.625H20.9375C20.5894 19.625 20.2556 19.7633 20.0094 20.0094C19.7633 20.2556 19.625 20.5894 19.625 20.9375V27.0625C19.625 27.4106 19.7633 27.7444 20.0094 27.9906C20.2556 28.2367 20.5894 28.375 20.9375 28.375H27.0625C27.4106 28.375 27.7444 28.2367 27.9906 27.9906C28.2367 27.7444 28.375 27.4106 28.375 27.0625V20.9375C28.375 20.5894 28.2367 20.2556 27.9906 20.0094C27.7444 19.7633 27.4106 19.625 27.0625 19.625ZM25.75 25.75H22.25V22.25H25.75V25.75ZM35.375 25.3125H34.0625V22.6875H35.375C35.7231 22.6875 36.0569 22.5492 36.3031 22.3031C36.5492 22.0569 36.6875 21.7231 36.6875 21.375C36.6875 21.0269 36.5492 20.6931 36.3031 20.4469C36.0569 20.2008 35.7231 20.0625 35.375 20.0625H34.0625V16.125C34.0625 15.5448 33.832 14.9884 33.4218 14.5782C33.0116 14.168 32.4552 13.9375 31.875 13.9375H27.9375V12.625C27.9375 12.2769 27.7992 11.9431 27.5531 11.6969C27.3069 11.4508 26.9731 11.3125 26.625 11.3125C26.2769 11.3125 25.9431 11.4508 25.6969 11.6969C25.4508 11.9431 25.3125 12.2769 25.3125 12.625V13.9375H22.6875V12.625C22.6875 12.2769 22.5492 11.9431 22.3031 11.6969C22.0569 11.4508 21.7231 11.3125 21.375 11.3125C21.0269 11.3125 20.6931 11.4508 20.4469 11.6969C20.2008 11.9431 20.0625 12.2769 20.0625 12.625V13.9375H16.125C15.5448 13.9375 14.9884 14.168 14.5782 14.5782C14.168 14.9884 13.9375 15.5448 13.9375 16.125V20.0625H12.625C12.2769 20.0625 11.9431 20.2008 11.6969 20.4469C11.4508 20.6931 11.3125 21.0269 11.3125 21.375C11.3125 21.7231 11.4508 22.0569 11.6969 22.3031C11.9431 22.5492 12.2769 22.6875 12.625 22.6875H13.9375V25.3125H12.625C12.2769 25.3125 11.9431 25.4508 11.6969 25.6969C11.4508 25.9431 11.3125 26.2769 11.3125 26.625C11.3125 26.9731 11.4508 27.3069 11.6969 27.5531C11.9431 27.7992 12.2769 27.9375 12.625 27.9375H13.9375V31.875C13.9375 32.4552 14.168 33.0116 14.5782 33.4218C14.9884 33.832 15.5448 34.0625 16.125 34.0625H20.0625V35.375C20.0625 35.7231 20.2008 36.0569 20.4469 36.3031C20.6931 36.5492 21.0269 36.6875 21.375 36.6875C21.7231 36.6875 22.0569 36.5492 22.3031 36.3031C22.5492 36.0569 22.6875 35.7231 22.6875 35.375V34.0625H25.3125V35.375C25.3125 35.7231 25.4508 36.0569 25.6969 36.3031C25.9431 36.5492 26.2769 36.6875 26.625 36.6875C26.9731 36.6875 27.3069 36.5492 27.5531 36.3031C27.7992 36.0569 27.9375 35.7231 27.9375 35.375V34.0625H31.875C32.4552 34.0625 33.0116 33.832 33.4218 33.4218C33.832 33.0116 34.0625 32.4552 34.0625 31.875V27.9375H35.375C35.7231 27.9375 36.0569 27.7992 36.3031 27.5531C36.5492 27.3069 36.6875 26.9731 36.6875 26.625C36.6875 26.2769 36.5492 25.9431 36.3031 25.6969C36.0569 25.4508 35.7231 25.3125 35.375 25.3125ZM31.4375 31.4375H16.5625V16.5625H31.4375V31.4375Z" fill="#4F46E5"/>
</svg>
