<svg width="40" height="40" viewBox="0 0 40 40" fill="none" xmlns="http://www.w3.org/2000/svg">
<rect x="0.5" y="0.5" width="39" height="39" rx="19.5" stroke="#CBD5E1"/>
<path d="M24.6839 22.7883L24.6835 22.7891C23.6601 24.5623 21.9511 25.5781 20 25.5781C18.0491 25.5781 16.343 24.5634 15.3167 22.7894C15.1801 22.5423 15.1459 22.2514 15.2214 21.9793C15.297 21.7071 15.4764 21.4754 15.7211 21.3341C15.9658 21.1928 16.2561 21.1532 16.5297 21.2239C16.8031 21.2944 17.038 21.4695 17.1837 21.7113C17.5519 22.3482 18.4099 23.4219 20 23.4219C21.5904 23.4219 22.4485 22.3468 22.8165 21.711L22.817 21.7102C22.8863 21.5849 22.9799 21.4746 23.0924 21.3859C23.2048 21.2972 23.3338 21.2317 23.4718 21.1934C23.6099 21.1551 23.7541 21.1447 23.8962 21.1627C24.0383 21.1808 24.1754 21.227 24.2994 21.2986C24.4235 21.3702 24.532 21.4659 24.6186 21.5799C24.7053 21.6939 24.7684 21.8241 24.8042 21.9628C24.84 22.1015 24.8478 22.2459 24.8271 22.3877C24.8065 22.5294 24.7578 22.6656 24.6839 22.7883ZM27.9219 20.0001V20C27.9219 18.4332 27.4573 16.9016 26.5868 15.5988C25.7163 14.2961 24.4791 13.2807 23.0316 12.6811C21.584 12.0816 19.9912 11.9247 18.4545 12.2303C16.9178 12.536 15.5063 13.2905 14.3984 14.3984C13.2905 15.5063 12.536 16.9178 12.2303 18.4545C11.9247 19.9912 12.0816 21.584 12.6811 23.0316C13.2807 24.4791 14.2961 25.7163 15.5988 26.5868C16.9016 27.4573 18.4332 27.9219 20 27.9219H20.0001C22.1004 27.9196 24.114 27.0843 25.5991 25.5991C27.0843 24.114 27.9196 22.1004 27.9219 20.0001ZM30.0781 20.0001C30.0781 21.9933 29.487 23.9418 28.3797 25.5991C27.2723 27.2564 25.6983 28.5482 23.8567 29.311C22.0152 30.0738 19.9888 30.2733 18.0339 29.8845C16.0789 29.4956 14.2831 28.5358 12.8737 27.1263C11.4642 25.7169 10.5044 23.9211 10.1155 21.9661C9.72666 20.0112 9.92624 17.9848 10.689 16.1433C11.4518 14.3017 12.7436 12.7277 14.4009 11.6203C16.0582 10.513 18.0067 9.92188 20 9.92188C22.672 9.92485 25.2337 10.9876 27.123 12.877C29.0124 14.7664 30.0752 17.3281 30.0781 20.0001ZM17.4323 19.3332C17.1934 19.4929 16.9124 19.5781 16.625 19.5781C16.2396 19.5781 15.87 19.425 15.5975 19.1525C15.325 18.88 15.1719 18.5104 15.1719 18.125C15.1719 17.8376 15.2571 17.5567 15.4168 17.3177C15.5764 17.0787 15.8034 16.8925 16.0689 16.7825C16.3344 16.6725 16.6266 16.6437 16.9085 16.6998C17.1904 16.7559 17.4493 16.8943 17.6525 17.0975C17.8557 17.3007 17.9941 17.5596 18.0502 17.8415C18.1063 18.1234 18.0775 18.4156 17.9675 18.6811C17.8575 18.9466 17.6713 19.1736 17.4323 19.3332ZM22.5677 16.9168C22.8067 16.7571 23.0876 16.6719 23.375 16.6719C23.7604 16.6719 24.13 16.825 24.4025 17.0975C24.675 17.37 24.8281 17.7396 24.8281 18.125C24.8281 18.4124 24.7429 18.6933 24.5832 18.9323C24.4236 19.1713 24.1966 19.3575 23.9311 19.4675C23.6656 19.5775 23.3734 19.6063 23.0915 19.5502C22.8096 19.4941 22.5507 19.3557 22.3475 19.1525C22.1443 18.9493 22.0059 18.6904 21.9498 18.4085C21.8937 18.1266 21.9225 17.8344 22.0325 17.5689C22.1425 17.3034 22.3287 17.0764 22.5677 16.9168Z" fill="#475569" stroke="#475569" stroke-width="0.09375"/>
</svg>
