<svg width="40" height="40" viewBox="0 0 40 40" fill="none" xmlns="http://www.w3.org/2000/svg">
<rect x="0.5" y="0.5" width="39" height="39" rx="19.5" stroke="#CBD5E1"/>
<path d="M21.1188 28.5054L21.0781 28.5108V28.5519V30.5C21.0781 30.7859 20.9645 31.0602 20.7623 31.2623C20.5602 31.4645 20.2859 31.5781 20 31.5781C19.7141 31.5781 19.4398 31.4645 19.2377 31.2623C19.0355 31.0602 18.9219 30.7859 18.9219 30.5V28.5519V28.5108L18.8812 28.5054C16.8187 28.2313 14.9258 27.218 13.554 25.6537C12.1821 24.0895 11.4245 22.0805 11.4219 19.9999L11.375 20H11.4219C11.4219 19.7141 11.5355 19.4398 11.7377 19.2377C11.9398 19.0355 12.2141 18.9219 12.5 18.9219C12.7859 18.9219 13.0602 19.0355 13.2623 19.2377C13.4645 19.4398 13.5781 19.7141 13.5781 20C13.5781 21.7032 14.2547 23.3366 15.459 24.541C16.6634 25.7453 18.2968 26.4219 20 26.4219C21.7032 26.4219 23.3366 25.7453 24.541 24.541C25.7453 23.3366 26.4219 21.7032 26.4219 20C26.4219 19.7141 26.5355 19.4398 26.7377 19.2377C26.9398 19.0355 27.2141 18.9219 27.5 18.9219C27.7859 18.9219 28.0602 19.0355 28.2623 19.2377C28.4645 19.4398 28.5781 19.714 28.5781 19.9999C28.5755 22.0805 27.8179 24.0895 26.446 25.6537C25.0742 27.218 23.1813 28.2313 21.1188 28.5054ZM23.4124 23.4124C22.5072 24.3175 21.28 24.8266 20 24.8281C18.72 24.8266 17.4928 24.3175 16.5876 23.4124C15.6825 22.5072 15.1733 21.28 15.1719 19.9999V14C15.1719 12.7195 15.6806 11.4914 16.586 10.586C17.4914 9.68055 18.7195 9.17188 20 9.17188C21.2805 9.17188 22.5086 9.68055 23.414 10.586C24.3194 11.4914 24.8281 12.7195 24.8281 14V19.9999C24.8267 21.28 24.3175 22.5072 23.4124 23.4124ZM18.1107 12.1107C17.6096 12.6118 17.3281 13.2914 17.3281 14V20C17.3281 20.7086 17.6096 21.3882 18.1107 21.8893C18.6118 22.3904 19.2914 22.6719 20 22.6719C20.7086 22.6719 21.3882 22.3904 21.8893 21.8893C22.3904 21.3882 22.6719 20.7086 22.6719 20V14C22.6719 13.2914 22.3904 12.6118 21.8893 12.1107C21.3882 11.6096 20.7086 11.3281 20 11.3281C19.2914 11.3281 18.6118 11.6096 18.1107 12.1107Z" fill="#475569" stroke="#475569" stroke-width="0.09375"/>
</svg>
