<svg width="24" height="24" viewBox="0 0 24 24" fill="none" xmlns="http://www.w3.org/2000/svg">
<path d="M19.9201 12.7959L12.2269 20.4834C11.1717 21.5383 9.74065 22.1308 8.24859 22.1305C6.75654 22.1302 5.32569 21.5373 4.27084 20.482C3.21598 19.4268 2.62352 17.9957 2.62378 16.5037C2.62404 15.0116 3.21701 13.5808 4.27224 12.5259L13.4747 3.34875C14.1783 2.64559 15.1323 2.25071 16.127 2.25098C16.6195 2.25111 17.1072 2.34824 17.5621 2.53684C18.0171 2.72544 18.4305 3.0018 18.7786 3.35015C19.1268 3.69851 19.403 4.11202 19.5913 4.5671C19.7797 5.02217 19.8766 5.50989 19.8764 6.0024C19.8763 6.49491 19.7792 6.98258 19.5906 7.43755C19.402 7.89252 19.1256 8.30589 18.7772 8.65406L18.7613 8.66906L9.78006 17.3147C9.67356 17.4171 9.54794 17.4976 9.41035 17.5514C9.27276 17.6053 9.12591 17.6316 8.97818 17.6287C8.83045 17.6258 8.68473 17.5939 8.54934 17.5347C8.41395 17.4755 8.29155 17.3902 8.18912 17.2837C8.08669 17.1773 8.00624 17.0516 7.95235 16.914C7.89847 16.7765 7.87222 16.6296 7.87509 16.4819C7.87797 16.3341 7.90991 16.1884 7.9691 16.053C8.02829 15.9176 8.11356 15.7952 8.22006 15.6928L17.1929 7.05656C17.4733 6.77435 17.6302 6.39229 17.629 5.99442C17.6277 5.59655 17.4685 5.21546 17.1863 4.935C17.0466 4.79613 16.8809 4.68614 16.6986 4.61131C16.5164 4.53648 16.3212 4.49828 16.1242 4.49889C15.7263 4.50012 15.3452 4.65935 15.0647 4.94156L5.86224 14.1159C5.22933 14.7491 4.87386 15.6078 4.87404 16.503C4.87412 16.9463 4.96152 17.3852 5.13124 17.7947C5.30096 18.2042 5.54967 18.5763 5.86318 18.8897C6.17669 19.2031 6.54886 19.4516 6.95843 19.6212C7.36801 19.7908 7.80697 19.878 8.25025 19.8779C9.1455 19.8777 10.004 19.5219 10.6369 18.8887L18.3301 11.2012C18.4347 11.0966 18.5589 11.0136 18.6957 10.957C18.8324 10.9003 18.9789 10.8712 19.1269 10.8712C19.2749 10.8712 19.4215 10.9003 19.5582 10.957C19.6949 11.0136 19.8192 11.0966 19.9238 11.2012C20.0285 11.3059 20.1115 11.4301 20.1681 11.5669C20.2247 11.7036 20.2539 11.8501 20.2539 11.9981C20.2539 12.1461 20.2247 12.2927 20.1681 12.4294C20.1115 12.5661 20.0285 12.6904 19.9238 12.795L19.9201 12.7959Z" fill="#94A3B8"/>
</svg>
